<?xml version="1.0" ?><svg id="Layer_1" style="enable-background:new 0 0 50 50;" version="1.1" viewBox="0 0 50 50" xml:space="preserve" xmlns="http://www.w3.org/2000/svg" xmlns:xlink="http://www.w3.org/1999/xlink"><style type="text/css">
	.st0{fill:#F0C4DB;}
	.st1{fill:#FF9D9C;}
	.st2{fill:#9BEAF9;}
	.st3{fill:#E9F4BC;}
	.st4{fill:#505050;}
	.st5{fill:#FEBECC;}
	.st6{fill:#FFFFFF;}
	.st7{fill:#FDE4A1;}
	.st8{fill:#FEE7B5;}
	.st9{fill:#CDF6FC;}
	.st10{fill:#F2C6DD;}
	.st11{opacity:0.1;}
</style><g><path class="st0" d="M4.29,25.2c0,11.6,9.4,21,21,21v-42C13.69,4.2,4.29,13.61,4.29,25.2z"/><g><g><path class="st1" d="M27.03,15.2h-3.62l-2.62,6.29l-2.61-6.29h-3.63c-1.63,0-2.93,1.3-2.93,2.93V30.9c0,1.61,1.3,2.93,2.93,2.93     h1.44V48h4.8h4.8V36.78l4.38-12.92v-5.73C29.97,16.5,28.65,15.2,27.03,15.2z"/><path class="st2" d="M25.83,7.04c0,2-1.17,3.73-2.86,4.53c-0.66,0.32-1.4,0.5-2.18,0.5c-0.78,0-1.53-0.18-2.19-0.5     c-1.69-0.81-2.86-2.53-2.86-4.53c0-2.78,2.26-5.04,5.05-5.04C23.57,2,25.83,4.25,25.83,7.04z"/><g><ellipse class="st3" cx="34.85" cy="32.72" rx="10.11" ry="10.11" transform="matrix(0.2298 -0.9732 0.9732 0.2298 -5.0029 59.1144)"/></g></g><g><circle class="st4" cx="11.62" cy="27.92" r="0.75"/><path class="st4" d="M18.27,12.24c0.77,0.38,1.64,0.58,2.52,0.58c0.88,0,1.73-0.2,2.5-0.58c2-0.95,3.28-2.99,3.28-5.21     c0-3.19-2.6-5.79-5.79-5.79c-3.2,0-5.8,2.6-5.8,5.79C15,9.28,16.26,11.27,18.27,12.24z M20.8,2.75c2.36,0,4.29,1.92,4.29,4.29     c0,1.64-0.95,3.15-2.44,3.86c-1.15,0.57-2.56,0.56-3.71,0c-1.5-0.72-2.43-2.2-2.43-3.86C16.5,4.67,18.43,2.75,20.8,2.75z"/><path class="st4" d="M34.85,21.86c-1.46,0-2.85,0.29-4.13,0.82v-4.54c-0.01-2.03-1.66-3.68-3.69-3.68h-3.62     c-0.3,0-0.57,0.18-0.69,0.46l-1.93,4.63l-1.92-4.63c-0.12-0.28-0.39-0.46-0.69-0.46h-3.63c-2.02,0-3.67,1.65-3.68,3.68v7.79     c0,0.42,0.34,0.75,0.75,0.75c0.42,0,0.75-0.33,0.75-0.75v-0.01v-7.78c0.01-1.22,0.96-2.18,2.18-2.18h3.13l2.42,5.83     c0.22,0.56,1.14,0.57,1.38,0l2.43-5.83h3.12c1.23,0,2.19,0.96,2.19,2.18v5.31c-3.13,1.91-5.24,5.35-5.24,9.27     c0,1.5,0.3,2.93,0.86,4.22v10.3l-3.3,0v-4.67c0-0.41-0.34-0.75-0.75-0.75s-0.75,0.34-0.75,0.75v4.67l-3.3,0V33.83c0,0,0,0,0,0     v-5.23c0-0.41-0.34-0.75-0.75-0.75s-0.75,0.34-0.75,0.75v4.49h-0.69c-1.2,0-2.18-0.98-2.18-2.18v-0.98     c0-0.41-0.33-0.75-0.75-0.75c-0.41,0-0.74,0.34-0.74,0.75l-0.01,0.98c0.01,2.02,1.66,3.67,3.68,3.68h0.69v13.41     c0,0.2,0.08,0.4,0.22,0.54c0.14,0.14,0.33,0.22,0.53,0.22h9.6c0.2,0,0.39-0.08,0.53-0.23c0.14-0.14,0.22-0.33,0.22-0.53v-8.54     c1.99,2.51,5.06,4.13,8.51,4.13c5.99,0,10.86-4.87,10.86-10.86S40.84,21.86,34.85,21.86z M34.85,42.08     c-5.16,0-9.36-4.2-9.36-9.36c0-5.16,4.2-9.36,9.36-9.36s9.36,4.2,9.36,9.36C44.21,37.88,40.01,42.08,34.85,42.08z"/><path class="st4" d="M37.7,32.71c-0.29-0.29-0.77-0.29-1.06,0s-0.29,0.77,0,1.06l0.92,0.92h-7.23c-0.41,0-0.75,0.34-0.75,0.75     s0.34,0.75,0.75,0.75h7.23l-0.92,0.92c-0.29,0.29-0.29,0.77,0,1.06c0.15,0.15,0.34,0.22,0.53,0.22c0.19,0,0.38-0.07,0.53-0.22     l2.2-2.2c0.14-0.14,0.22-0.33,0.22-0.53c0-0.2-0.08-0.39-0.22-0.53L37.7,32.71z"/><path class="st4" d="M39.37,29.24h-7.23l0.92-0.92c0.29-0.29,0.29-0.77,0-1.06s-0.77-0.29-1.06,0l-2.2,2.2     c-0.29,0.29-0.29,0.77,0,1.06l2.2,2.2c0.15,0.15,0.34,0.22,0.53,0.22s0.38-0.07,0.53-0.22c0.29-0.29,0.29-0.77,0-1.06l-0.92-0.92     h7.23c0.41,0,0.75-0.34,0.75-0.75S39.78,29.24,39.37,29.24z"/></g></g></g></svg>